<svg xmlns="http://www.w3.org/2000/svg" viewBox="0 0 64 64" width="64" height="64">
  <defs>
    <linearGradient id="rustGradient" x1="0%" y1="0%" x2="100%" y2="100%">
      <stop offset="0%" style="stop-color:#a277ff;stop-opacity:1" />
      <stop offset="100%" style="stop-color:#6d4cff;stop-opacity:1" />
    </linearGradient>
  </defs>
  
  <!-- 外齿轮 -->
  <path d="M32 6 L40 10 L45 4 L37 -4 L27 -4 L19 4 L24 10 Z" fill="none" stroke="url(#rustGradient)" stroke-width="4" stroke-linejoin="round"/>
  <path d="M58 32 L54 40 L60 45 L68 37 L68 27 L60 19 L54 24 Z" fill="none" stroke="url(#rustGradient)" stroke-width="4" stroke-linejoin="round"/>
  <path d="M32 58 L24 54 L19 60 L27 68 L37 68 L45 60 L40 54 Z" fill="none" stroke="url(#rustGradient)" stroke-width="4" stroke-linejoin="round"/>
  <path d="M6 32 L10 24 L4 19 L-4 27 L-4 37 L4 45 L10 40 Z" fill="none" stroke="url(#rustGradient)" stroke-width="4" stroke-linejoin="round"/>
  
  <!-- 内圆 -->
  <circle cx="32" cy="32" r="18" fill="url(#rustGradient)"/>
  
  <!-- 字母 R -->
  <text x="32" y="39" font-family="'Segoe UI', Arial, sans-serif" font-weight="900" font-size="20" fill="#ffffff" text-anchor="middle">R</text>
</svg>